<svg width="50" height="58" viewBox="0 0 50 58" fill="none" xmlns="http://www.w3.org/2000/svg">
<rect width="4.19762" height="57.1942" rx="2.09881" transform="matrix(0.945585 0.325376 -0.408527 0.912746 36.6572 4.12657)" fill="#3D5AFE"/>
<rect width="4.19762" height="57.1942" rx="2.09881" transform="matrix(0.945585 0.325376 -0.408527 0.912746 45.1854 4.12657)" fill="#3D5AFE"/>
<path d="M4.22727 46V11.0909H16.0227C18.75 11.0909 20.9886 11.5568 22.7386 12.4886C24.4886 13.4091 25.7841 14.6761 26.625 16.2898C27.4659 17.9034 27.8864 19.7386 27.8864 21.7955C27.8864 23.8523 27.4659 25.6761 26.625 27.267C25.7841 28.858 24.4943 30.108 22.7557 31.017C21.017 31.9148 18.7955 32.3636 16.0909 32.3636H6.54545V28.5455H15.9545C17.8182 28.5455 19.3182 28.2727 20.4545 27.7273C21.6023 27.1818 22.4318 26.4091 22.9432 25.4091C23.4659 24.3977 23.7273 23.1932 23.7273 21.7955C23.7273 20.3977 23.4659 19.1761 22.9432 18.1307C22.4205 17.0852 21.5852 16.2784 20.4375 15.7102C19.2898 15.1307 17.7727 14.8409 15.8864 14.8409H8.45455V46H4.22727ZM20.6591 30.3182L29.25 46H24.3409L15.8864 30.3182H20.6591ZM37.3168 46.2727C36.4759 46.2727 35.7543 45.9716 35.152 45.3693C34.5497 44.767 34.2486 44.0455 34.2486 43.2045C34.2486 42.3636 34.5497 41.642 35.152 41.0398C35.7543 40.4375 36.4759 40.1364 37.3168 40.1364C38.1577 40.1364 38.8793 40.4375 39.4815 41.0398C40.0838 41.642 40.3849 42.3636 40.3849 43.2045C40.3849 43.7614 40.2429 44.2727 39.9588 44.7386C39.6861 45.2045 39.3168 45.5795 38.8509 45.8636C38.3963 46.1364 37.8849 46.2727 37.3168 46.2727Z" fill="white"/>
</svg>
